<?xml version="1.0" standalone="no"?>
<!DOCTYPE svg PUBLIC "-//W3C//DTD SVG 20010904//EN"
 "http://www.w3.org/TR/2001/REC-SVG-20010904/DTD/svg10.dtd">
<svg version="1.0" xmlns="http://www.w3.org/2000/svg"
 width="250.000000pt" height="250.000000pt" viewBox="0 0 250.000000 250.000000"
 preserveAspectRatio="xMidYMid meet">
<metadata>
Created by potrace 1.14, written by Peter Selinger 2001-2017
</metadata>
<g transform="translate(0.000000,250.000000) scale(0.100000,-0.100000)"
fill="#000000" stroke="none">
<path d="M0 1250 l0 -1250 1250 0 1250 0 0 1250 0 1250 -1250 0 -1250 0 0
-1250z m1870 775 l0 -155 155 0 155 0 0 -625 0 -625 -155 0 -155 0 0 -155 0
-155 -780 0 -780 0 0 155 0 155 155 0 155 0 0 625 0 625 -155 0 -155 0 0 155
0 155 780 0 780 0 0 -155z"/>
<path d="M930 1245 l0 -625 470 0 470 0 0 625 0 625 -470 0 -470 0 0 -625z"/>
</g>
</svg>
